<svg xmlns="http://www.w3.org/2000/svg" id="Capa_1" data-name="Capa 1" fill="currentColor" viewBox="0 0 100 26.23"><path d="M8.72 0C6.21 0 3.8 1.11 2.26 3.1c-.01.02-.03.03-.04.05-2.7 3.53-2.24 7.59-2.11 8.54.54-1 1.55-2.57 3.31-3.97a8.76 8.76 0 0 1 5.45-1.89h9.87c1.12 0 2.19-.56 2.77-1.51 0 0 0-.01.01-.02C22.55 2.61 22.65.93 22.63.06zM7.16 9.98c-1.38.02-2.71.47-3.79 1.33a8.73 8.73 0 0 0-2.64 3.53c-.29.7-.42 1.46-.43 2.22l-.11 9.17h3.94c.49 0 .94-.25 1.2-.66.2-.32.23-.63.24-.78v-6.25c0-.69.2-1.37.62-1.92.09-.12.2-.25.32-.37a3.14 3.14 0 0 1 2.2-.94c1.59-.01 3.17-.03 4.76-.04 1.48-.01 2.81-.89 3.41-2.24.6-1.37.57-2.59.51-3.19l-10.24.13Zm29.07-.16c-.5 0-.87.38-.87.87s.35.85.84.85c.55 0 .9-.38.88-.85 0-.49-.33-.87-.85-.87m-7.92 10.64h1.37v-4.81h4.02v-1.13h-4.02v-3.53h4.35V9.84h-5.72v10.63Zm14.71-7.8c-1.26 0-2.14.71-2.52 1.43h-.03l-.08-1.26h-1.23c.05.63.06 1.28.06 2.06v5.57h1.39v-4.59c0-.24.03-.47.09-.65.24-.77.95-1.42 1.86-1.42 1.31 0 1.77 1.02 1.77 2.25v4.4h1.39v-4.56c0-2.62-1.64-3.25-2.7-3.25Zm-7.49 7.8h1.39v-7.63h-1.39zm61.95-7.8c-.73 0-1.23.19-1.69.54-.32.24-.61.57-.85.99h-.03c-.33-.9-1.12-1.53-2.16-1.53-1.26 0-1.97.68-2.4 1.4h-.05l-.06-1.23h-1.21c.05.63.06 1.28.06 2.06v5.57h1.36v-4.6c0-.24.03-.47.11-.68.22-.69.85-1.39 1.72-1.39 1.06 0 1.59.88 1.59 2.1v4.57h1.36v-4.71c0-.25.05-.5.11-.69.24-.68.85-1.26 1.64-1.26 1.12 0 1.66.88 1.66 2.35v4.32H100v-4.49c0-2.65-1.5-3.31-2.51-3.31Zm-20.47 1.12c.76 0 1.28.17 1.61.36l.32-1.07c-.38-.19-1.1-.39-1.92-.39-2.49 0-4.1 1.7-4.1 4.05s1.5 3.89 3.8 3.89c1.02 0 1.83-.25 2.19-.44l-.24-1.04c-.39.17-.91.38-1.7.38-1.51 0-2.65-1.09-2.65-2.85 0-1.59.95-2.88 2.7-2.88Zm-5.85-.95h-1.39v4.68c0 .25-.05.5-.13.71-.25.61-.9 1.26-1.83 1.26-1.26 0-1.7-.98-1.7-2.43v-4.22h-1.39v4.46c0 2.68 1.44 3.34 2.63 3.34 1.36 0 2.16-.8 2.52-1.42h.03l.08 1.25h1.23c-.05-.6-.06-1.29-.06-2.08v-5.55Zm12.51-.17c-2.11 0-3.78 1.5-3.78 4.05 0 2.41 1.59 3.93 3.66 3.93 1.84 0 3.8-1.23 3.8-4.05 0-2.33-1.48-3.93-3.67-3.93Zm-.06 6.94c-1.36 0-2.32-1.26-2.32-2.93 0-1.45.71-2.96 2.35-2.96s2.29 1.64 2.29 2.93c0 1.72-.99 2.96-2.32 2.96M62.47 9.27h-1.39v4.56h-.03c-.35-.61-1.14-1.17-2.3-1.17-1.86 0-3.44 1.56-3.42 4.1 0 2.32 1.42 3.88 3.26 3.88 1.25 0 2.18-.65 2.6-1.5h.03l.06 1.32h1.25c-.05-.52-.06-1.29-.06-1.97zm-1.39 7.99c0 .22-.02.41-.06.6-.25 1.04-1.1 1.66-2.03 1.66-1.5 0-2.25-1.28-2.25-2.82 0-1.69.85-2.95 2.29-2.95 1.04 0 1.8.73 2 1.61.05.17.06.41.06.58v1.32ZM51 12.66c-2.22 0-3.58 1.81-3.58 4.11s1.4 3.85 3.75 3.85c1.21 0 2.05-.25 2.54-.47l-.24-.99c-.52.22-1.12.39-2.11.39-1.39 0-2.59-.77-2.62-2.65h5.36c.02-.14.05-.36.05-.65 0-1.4-.66-3.59-3.15-3.59m-2.24 3.25c.11-.96.73-2.25 2.13-2.25 1.56 0 1.94 1.37 1.92 2.25z"/></svg>